<svg xmlns="http://www.w3.org/2000/svg" style="display:none">

  <!-- ================================
       LOGO
  ================================ -->

  <symbol id="logo-nav" viewBox="0 0 135 48">
    <path d="M0 32V18.9091H3.46023V21.2188H3.61364C3.88636 20.4517 4.34091 19.8466 4.97727 19.4034C5.61364 18.9602 6.375 18.7386 7.26136 18.7386C8.15909 18.7386 8.9233 18.9631 9.55398 19.4119C10.1847 19.8551 10.6051 20.4574 10.8153 21.2188H10.9517C11.2188 20.4688 11.7017 19.8693 12.4006 19.4205C13.1051 18.9659 13.9375 18.7386 14.8977 18.7386C16.1193 18.7386 17.1108 19.1278 17.8722 19.9062C18.6392 20.679 19.0227 21.7756 19.0227 23.196V32H15.4006V23.9119C15.4006 23.1847 15.2074 22.6392 14.821 22.2756C14.4347 21.9119 13.9517 21.7301 13.3722 21.7301C12.7131 21.7301 12.1989 21.9403 11.8295 22.3608C11.4602 22.7756 11.2756 23.3239 11.2756 24.0057V32H7.75568V23.8352C7.75568 23.1932 7.57102 22.6818 7.2017 22.3011C6.83807 21.9205 6.35795 21.7301 5.76136 21.7301C5.35795 21.7301 4.99432 21.8324 4.67045 22.0369C4.35227 22.2358 4.09943 22.517 3.91193 22.8807C3.72443 23.2386 3.63068 23.6591 3.63068 24.142V32H0Z" fill="currentColor"/>
    <path d="M25.6236 32.2472C24.7884 32.2472 24.044 32.1023 23.3906 31.8125C22.7372 31.517 22.2202 31.0824 21.8395 30.5085C21.4645 29.929 21.277 29.2074 21.277 28.3438C21.277 27.6165 21.4105 27.0057 21.6776 26.5114C21.9446 26.017 22.3082 25.6193 22.7685 25.3182C23.2287 25.017 23.7514 24.7898 24.3366 24.6364C24.9276 24.483 25.5469 24.375 26.1946 24.3125C26.956 24.233 27.5696 24.1591 28.0355 24.0909C28.5014 24.017 28.8395 23.9091 29.0497 23.767C29.2599 23.625 29.3651 23.4148 29.3651 23.1364V23.0852C29.3651 22.5455 29.1946 22.1278 28.8537 21.8324C28.5185 21.5369 28.0412 21.3892 27.4219 21.3892C26.7685 21.3892 26.2486 21.5341 25.8622 21.8239C25.4759 22.108 25.2202 22.4659 25.0952 22.8977L21.7372 22.625C21.9077 21.8295 22.2429 21.142 22.7429 20.5625C23.2429 19.9773 23.8878 19.5284 24.6776 19.2159C25.473 18.8977 26.3935 18.7386 27.4389 18.7386C28.1662 18.7386 28.8622 18.8239 29.527 18.9943C30.1974 19.1648 30.7912 19.429 31.3082 19.7869C31.831 20.1449 32.2429 20.6051 32.544 21.1676C32.8452 21.7244 32.9957 22.392 32.9957 23.1705V32H29.5526V30.1847H29.4503C29.2401 30.5938 28.9588 30.9545 28.6065 31.267C28.2543 31.5739 27.831 31.8153 27.3366 31.9915C26.8423 32.1619 26.2713 32.2472 25.6236 32.2472ZM26.6634 29.7415C27.1974 29.7415 27.669 29.6364 28.0781 29.4261C28.4872 29.2102 28.8082 28.9205 29.0412 28.5568C29.2741 28.1932 29.3906 27.7812 29.3906 27.321V25.9318C29.277 26.0057 29.1207 26.0739 28.9219 26.1364C28.7287 26.1932 28.5099 26.2472 28.2656 26.2983C28.0213 26.3438 27.777 26.3864 27.5327 26.4261C27.2884 26.4602 27.0668 26.4915 26.8679 26.5199C26.4418 26.5824 26.0696 26.6818 25.7514 26.8182C25.4332 26.9545 25.1861 27.1392 25.0099 27.3722C24.8338 27.5994 24.7457 27.8835 24.7457 28.2244C24.7457 28.7188 24.9247 29.0966 25.2827 29.358C25.6463 29.6136 26.1065 29.7415 26.6634 29.7415Z" fill="currentColor"/>
    <path d="M48 18.9091L43.1447 24.5797L48.2472 32H43.9943L40.4271 26.7202L39.4432 27.8437V32H35.8125V14.5455H39.4432V23.8778H39.6392L43.8324 18.9091H48Z" fill="currentColor"/>
    <path d="M53.4119 14.5455V32H49.7812V14.5455H53.4119Z" fill="currentColor"/>
    <path fill-rule="evenodd" clip-rule="evenodd" d="M62.2351 32.2557C60.9112 32.2557 59.7663 31.9744 58.8004 31.4119C57.8402 30.8438 57.0987 30.054 56.576 29.0426C56.0533 28.0256 55.7919 26.8466 55.7919 25.5057C55.7919 24.1534 56.0533 22.9716 56.576 21.9602C57.0987 20.9432 57.8402 20.1534 58.8004 19.5909C59.7663 19.0227 60.9112 18.7386 62.2351 18.7386C63.5589 18.7386 64.701 19.0227 65.6612 19.5909C66.6271 20.1534 67.3714 20.9432 67.8942 21.9602C68.4169 22.9716 68.6783 24.1534 68.6783 25.5057C68.6783 26.8466 68.4169 28.0256 67.8942 29.0426C67.3714 30.054 66.6271 30.8438 65.6612 31.4119C64.701 31.9744 63.5589 32.2557 62.2351 32.2557ZM63.7607 28.9318C63.3572 29.2727 62.8544 29.4432 62.2521 29.4432C61.6442 29.4432 61.1328 29.2727 60.718 28.9318C60.3089 28.5852 59.9993 28.1136 59.7891 27.517C59.5845 26.9205 59.4822 26.2415 59.4822 25.4801C59.4822 24.7188 59.5845 24.0398 59.7891 23.4432C59.9993 22.8466 60.3089 22.375 60.718 22.0284C61.1328 21.6818 61.6442 21.5085 62.2521 21.5085C62.8544 21.5085 63.3572 21.6818 63.7607 22.0284C64.1641 22.375 64.468 22.8466 64.6726 23.4432C64.8828 24.0398 64.9879 24.7188 64.9879 25.4801C64.9879 26.2415 64.8828 26.9205 64.6726 27.517C64.468 28.1136 64.1641 28.5852 63.7607 28.9318Z" fill="currentColor"/>
    <path d="M134.551 0H86.5511V48H134.551V0ZM96 31V17.9091H99.5199V20.1932H99.6562C99.8949 19.3807 100.295 18.767 100.858 18.3523C101.42 17.9318 102.068 17.7216 102.801 17.7216C102.983 17.7216 103.179 17.733 103.389 17.7557C103.599 17.7784 103.784 17.8097 103.943 17.8494V21.071C103.773 21.0199 103.537 20.9744 103.236 20.9347C102.935 20.8949 102.659 20.875 102.409 20.875C101.875 20.875 101.398 20.9915 100.977 21.2244C100.562 21.4517 100.233 21.7699 99.9886 22.179C99.75 22.5881 99.6307 23.0597 99.6307 23.5938V31H96ZM105.82 31V17.9091H109.281V20.2188H109.434C109.707 19.4517 110.161 18.8466 110.798 18.4034C111.434 17.9602 112.195 17.7386 113.082 17.7386C113.979 17.7386 114.744 17.9631 115.374 18.4119C116.005 18.8551 116.425 19.4574 116.636 20.2188H116.772C117.039 19.4688 117.522 18.8693 118.221 18.4205C118.925 17.9659 119.758 17.7386 120.718 17.7386C121.94 17.7386 122.931 18.1278 123.692 18.9062C124.46 19.679 124.843 20.7756 124.843 22.196V31H121.221V22.9119C121.221 22.1847 121.028 21.6392 120.641 21.2756C120.255 20.9119 119.772 20.7301 119.192 20.7301C118.533 20.7301 118.019 20.9403 117.65 21.3608C117.281 21.7756 117.096 22.3239 117.096 23.0057V31H113.576V22.8352C113.576 22.1932 113.391 21.6818 113.022 21.3011C112.658 20.9205 112.178 20.7301 111.582 20.7301C111.178 20.7301 110.815 20.8324 110.491 21.0369C110.173 21.2358 109.92 21.517 109.732 21.8807C109.545 22.2386 109.451 22.6591 109.451 23.142V31H105.82Z" fill="#FFBF00"/>
  </symbol>

  <symbol id="logo-footer" viewBox="0 0 135 48">
    <path d="M0 32V18.9091H3.46023V21.2188H3.61364C3.88636 20.4517 4.34091 19.8466 4.97727 19.4034C5.61364 18.9602 6.375 18.7386 7.26136 18.7386C8.15909 18.7386 8.9233 18.9631 9.55398 19.4119C10.1847 19.8551 10.6051 20.4574 10.8153 21.2188H10.9517C11.2188 20.4688 11.7017 19.8693 12.4006 19.4205C13.1051 18.9659 13.9375 18.7386 14.8977 18.7386C16.1193 18.7386 17.1108 19.1278 17.8722 19.9062C18.6392 20.679 19.0227 21.7756 19.0227 23.196V32H15.4006V23.9119C15.4006 23.1847 15.2074 22.6392 14.821 22.2756C14.4347 21.9119 13.9517 21.7301 13.3722 21.7301C12.7131 21.7301 12.1989 21.9403 11.8295 22.3608C11.4602 22.7756 11.2756 23.3239 11.2756 24.0057V32H7.75568V23.8352C7.75568 23.1932 7.57102 22.6818 7.2017 22.3011C6.83807 21.9205 6.35795 21.7301 5.76136 21.7301C5.35795 21.7301 4.99432 21.8324 4.67045 22.0369C4.35227 22.2358 4.09943 22.517 3.91193 22.8807C3.72443 23.2386 3.63068 23.6591 3.63068 24.142V32H0Z" fill="currentColor"/>
    <path d="M25.6236 32.2472C24.7884 32.2472 24.044 32.1023 23.3906 31.8125C22.7372 31.517 22.2202 31.0824 21.8395 30.5085C21.4645 29.929 21.277 29.2074 21.277 28.3438C21.277 27.6165 21.4105 27.0057 21.6776 26.5114C21.9446 26.017 22.3082 25.6193 22.7685 25.3182C23.2287 25.017 23.7514 24.7898 24.3366 24.6364C24.9276 24.483 25.5469 24.375 26.1946 24.3125C26.956 24.233 27.5696 24.1591 28.0355 24.0909C28.5014 24.017 28.8395 23.9091 29.0497 23.767C29.2599 23.625 29.3651 23.4148 29.3651 23.1364V23.0852C29.3651 22.5455 29.1946 22.1278 28.8537 21.8324C28.5185 21.5369 28.0412 21.3892 27.4219 21.3892C26.7685 21.3892 26.2486 21.5341 25.8622 21.8239C25.4759 22.108 25.2202 22.4659 25.0952 22.8977L21.7372 22.625C21.9077 21.8295 22.2429 21.142 22.7429 20.5625C23.2429 19.9773 23.8878 19.5284 24.6776 19.2159C25.473 18.8977 26.3935 18.7386 27.4389 18.7386C28.1662 18.7386 28.8622 18.8239 29.527 18.9943C30.1974 19.1648 30.7912 19.429 31.3082 19.7869C31.831 20.1449 32.2429 20.6051 32.544 21.1676C32.8452 21.7244 32.9957 22.392 32.9957 23.1705V32H29.5526V30.1847H29.4503C29.2401 30.5938 28.9588 30.9545 28.6065 31.267C28.2543 31.5739 27.831 31.8153 27.3366 31.9915C26.8423 32.1619 26.2713 32.2472 25.6236 32.2472ZM26.6634 29.7415C27.1974 29.7415 27.669 29.6364 28.0781 29.4261C28.4872 29.2102 28.8082 28.9205 29.0412 28.5568C29.2741 28.1932 29.3906 27.7812 29.3906 27.321V25.9318C29.277 26.0057 29.1207 26.0739 28.9219 26.1364C28.7287 26.1932 28.5099 26.2472 28.2656 26.2983C28.0213 26.3438 27.777 26.3864 27.5327 26.4261C27.2884 26.4602 27.0668 26.4915 26.8679 26.5199C26.4418 26.5824 26.0696 26.6818 25.7514 26.8182C25.4332 26.9545 25.1861 27.1392 25.0099 27.3722C24.8338 27.5994 24.7457 27.8835 24.7457 28.2244C24.7457 28.7188 24.9247 29.0966 25.2827 29.358C25.6463 29.6136 26.1065 29.7415 26.6634 29.7415Z" fill="currentColor"/>
    <path d="M48 18.9091L43.1447 24.5797L48.2472 32H43.9943L40.4271 26.7202L39.4432 27.8437V32H35.8125V14.5455H39.4432V23.8778H39.6392L43.8324 18.9091H48Z" fill="currentColor"/>
    <path d="M53.4119 14.5455V32H49.7812V14.5455H53.4119Z" fill="currentColor"/>
    <path fill-rule="evenodd" clip-rule="evenodd" d="M62.2351 32.2557C60.9112 32.2557 59.7663 31.9744 58.8004 31.4119C57.8402 30.8438 57.0987 30.054 56.576 29.0426C56.0533 28.0256 55.7919 26.8466 55.7919 25.5057C55.7919 24.1534 56.0533 22.9716 56.576 21.9602C57.0987 20.9432 57.8402 20.1534 58.8004 19.5909C59.7663 19.0227 60.9112 18.7386 62.2351 18.7386C63.5589 18.7386 64.701 19.0227 65.6612 19.5909C66.6271 20.1534 67.3714 20.9432 67.8942 21.9602C68.4169 22.9716 68.6783 24.1534 68.6783 25.5057C68.6783 26.8466 68.4169 28.0256 67.8942 29.0426C67.3714 30.054 66.6271 30.8438 65.6612 31.4119C64.701 31.9744 63.5589 32.2557 62.2351 32.2557ZM63.7607 28.9318C63.3572 29.2727 62.8544 29.4432 62.2521 29.4432C61.6442 29.4432 61.1328 29.2727 60.718 28.9318C60.3089 28.5852 59.9993 28.1136 59.7891 27.517C59.5845 26.9205 59.4822 26.2415 59.4822 25.4801C59.4822 24.7188 59.5845 24.0398 59.7891 23.4432C59.9993 22.8466 60.3089 22.375 60.718 22.0284C61.1328 21.6818 61.6442 21.5085 62.2521 21.5085C62.8544 21.5085 63.3572 21.6818 63.7607 22.0284C64.1641 22.375 64.468 22.8466 64.6726 23.4432C64.8828 24.0398 64.9879 24.7188 64.9879 25.4801C64.9879 26.2415 64.8828 26.9205 64.6726 27.517C64.468 28.1136 64.1641 28.5852 63.7607 28.9318Z" fill="currentColor"/>
    <path d="M134.551 0H86.5511V48H134.551V0ZM96 31V17.9091H99.5199V20.1932H99.6562C99.8949 19.3807 100.295 18.767 100.858 18.3523C101.42 17.9318 102.068 17.7216 102.801 17.7216C102.983 17.7216 103.179 17.733 103.389 17.7557C103.599 17.7784 103.784 17.8097 103.943 17.8494V21.071C103.773 21.0199 103.537 20.9744 103.236 20.9347C102.935 20.8949 102.659 20.875 102.409 20.875C101.875 20.875 101.398 20.9915 100.977 21.2244C100.562 21.4517 100.233 21.7699 99.9886 22.179C99.75 22.5881 99.6307 23.0597 99.6307 23.5938V31H96ZM105.82 31V17.9091H109.281V20.2188H109.434C109.707 19.4517 110.161 18.8466 110.798 18.4034C111.434 17.9602 112.195 17.7386 113.082 17.7386C113.979 17.7386 114.744 17.9631 115.374 18.4119C116.005 18.8551 116.425 19.4574 116.636 20.2188H116.772C117.039 19.4688 117.522 18.8693 118.221 18.4205C118.925 17.9659 119.758 17.7386 120.718 17.7386C121.94 17.7386 122.931 18.1278 123.692 18.9062C124.46 19.679 124.843 20.7756 124.843 22.196V31H121.221V22.9119C121.221 22.1847 121.028 21.6392 120.641 21.2756C120.255 20.9119 119.772 20.7301 119.192 20.7301C118.533 20.7301 118.019 20.9403 117.65 21.3608C117.281 21.7756 117.096 22.3239 117.096 23.0057V31H113.576V22.8352C113.576 22.1932 113.391 21.6818 113.022 21.3011C112.658 20.9205 112.178 20.7301 111.582 20.7301C111.178 20.7301 110.815 20.8324 110.491 21.0369C110.173 21.2358 109.92 21.517 109.732 21.8807C109.545 22.2386 109.451 22.6591 109.451 23.142V31H105.82Z" fill="#FFFFFF"/>
  </symbol>

  <!-- ================================
       UI ICONS
  ================================ -->

  <symbol id="arrow" viewBox="0 0 24 24">
    <path d="M12.2449 24L9.53936 21.2619L16.6414 14.0119H0V9.98809H16.6414L9.53936 2.75L12.2449 0L24 12L12.2449 24Z" fill="currentColor"/>
  </symbol>

  <symbol id="telecharger" viewBox="0 0 17 24">
    <path d="M10.0273 0V13.2893L14.8727 8.31395L17 10.4715L8.49091 19.1574L0 10.4715L2.09091 8.31395L6.95455 13.2893V0H10.0273Z" fill="currentColor"/>
    <path d="M0 21.286H17V24H0V21.286Z" fill="currentColor"/>
  </symbol>

  <symbol id="mail" viewBox="0 0 24 19">
    <path d="M0 19L1.06752e-05 0H24L24 19L0 19ZM12 10.6875L21.6 4.75V2.375L12 8.3125L2.40001 2.375V4.75L12 10.6875Z" fill="currentColor"/>
  </symbol>

  <symbol id="icone" viewBox="0 0 24 24">
    <path d="M2.66667 24C1.93333 24 1.30556 23.7389 0.783333 23.2167C0.261111 22.6944 0 22.0667 0 21.3333V2.66667C0 1.93333 0.261111 1.30556 0.783333 0.783333C1.30556 0.261111 1.93333 0 2.66667 0H21.3333C22.0667 0 22.6944 0.261111 23.2167 0.783333C23.7389 1.30556 24 1.93333 24 2.66667V21.3333C24 22.0667 23.7389 22.6944 23.2167 23.2167C22.6944 23.7389 22.0667 24 21.3333 24H2.66667ZM4 18.6667H20L15 12L11 17.3333L8 13.3333L4 18.6667ZM8.75 8.75C9.13889 8.36111 9.33333 7.88889 9.33333 7.33333C9.33333 6.77778 9.13889 6.30556 8.75 5.91667C8.36111 5.52778 7.88889 5.33333 7.33333 5.33333C6.77778 5.33333 6.30556 5.52778 5.91667 5.91667C5.52778 6.30556 5.33333 6.77778 5.33333 7.33333C5.33333 7.88889 5.52778 8.36111 5.91667 8.75C6.30556 9.13889 6.77778 9.33333 7.33333 9.33333C7.88889 9.33333 8.36111 9.13889 8.75 8.75Z" fill="currentColor"/>
  </symbol>

  <symbol id="trophy" viewBox="0 0 24 24">
    <path d="M5.33333 24V21.3333H10.6667V17.2C9.57778 16.9556 8.60556 16.4944 7.75 15.8167C6.89444 15.1389 6.26667 14.2889 5.86667 13.2667C4.2 13.0667 2.80556 12.3389 1.68333 11.0833C0.561111 9.82778 0 8.35556 0 6.66667V5.33333C0 4.6 0.261111 3.97222 0.783333 3.45C1.30556 2.92778 1.93333 2.66667 2.66667 2.66667H5.33333V0H18.6667V2.66667H21.3333C22.0667 2.66667 22.6944 2.92778 23.2167 3.45C23.7389 3.97222 24 4.6 24 5.33333V6.66667C24 8.35556 23.4389 9.82778 22.3167 11.0833C21.1944 12.3389 19.8 13.0667 18.1333 13.2667C17.7333 14.2889 17.1056 15.1389 16.25 15.8167C15.3944 16.4944 14.4222 16.9556 13.3333 17.2V21.3333H18.6667V24H5.33333ZM5.33333 10.4V5.33333H2.66667V6.66667C2.66667 7.51111 2.91111 8.27222 3.4 8.95C3.88889 9.62778 4.53333 10.1111 5.33333 10.4ZM18.6667 10.4C19.4667 10.1111 20.1111 9.62778 20.6 8.95C21.0889 8.27222 21.3333 7.51111 21.3333 6.66667V5.33333H18.6667V10.4Z" fill="currentColor"/>
  </symbol>

  <!-- ================================
       RÉSEAUX SOCIAUX & OUTILS
  ================================ -->

  <symbol id="linkedin" viewBox="0 0 24 24">
    <path d="M0 1.719C0 0.7695 0.789 0 1.7625 0H22.2375C23.211 0 24 0.7695 24 1.719V22.281C24 23.2305 23.211 24 22.2375 24H1.7625C0.789 24 0 23.2305 0 22.281V1.719ZM7.4145 20.091V9.2535H3.813V20.091H7.4145ZM5.6145 7.773C6.87 7.773 7.6515 6.942 7.6515 5.901C7.629 4.8375 6.8715 4.029 5.6385 4.029C4.4055 4.029 3.6 4.839 3.6 5.901C3.6 6.942 4.3815 7.773 5.5905 7.773H5.6145ZM12.9765 20.091V14.0385C12.9765 13.7145 13.0005 13.3905 13.0965 13.1595C13.356 12.513 13.9485 11.8425 14.9445 11.8425C16.248 11.8425 16.7685 12.8355 16.7685 14.2935V20.091H20.37V13.875C20.37 10.545 18.594 8.997 16.224 8.997C14.313 8.997 13.4565 10.047 12.9765 10.7865V10.824H12.9525L12.9765 10.7865V9.2535H9.3765C9.4215 10.2705 9.3765 20.091 9.3765 20.091H12.9765Z" fill="currentColor"/>
  </symbol>

  <symbol id="instagram" viewBox="0 0 24 24">
    <path d="M12 0C8.7435 0 8.334 0.015 7.0545 0.072C5.775 0.132 4.9035 0.333 4.14 0.63C3.33877 0.930488 2.61321 1.4031 2.0145 2.0145C1.4031 2.61321 0.930488 3.33877 0.63 4.14C0.333 4.902 0.1305 5.775 0.072 7.05C0.015 8.3325 0 8.7405 0 12.0015C0 15.2595 0.015 15.6675 0.072 16.947C0.132 18.225 0.333 19.0965 0.63 19.86C0.9375 20.649 1.347 21.318 2.0145 21.9855C2.6805 22.653 3.3495 23.064 4.1385 23.37C4.9035 23.667 5.7735 23.8695 7.0515 23.928C8.3325 23.985 8.7405 24 12 24C15.2595 24 15.666 23.985 16.947 23.928C18.2235 23.868 19.098 23.667 19.8615 23.37C20.6622 23.0693 21.3872 22.5967 21.9855 21.9855C22.653 21.318 23.0625 20.649 23.37 19.86C23.6655 19.0965 23.868 18.225 23.928 16.947C23.985 15.6675 24 15.2595 24 12C24 8.7405 23.985 8.3325 23.928 7.0515C23.868 5.775 23.6655 4.902 23.37 4.14C23.0695 3.33877 22.5969 2.61321 21.9855 2.0145C21.3868 1.4031 20.6612 0.930488 19.86 0.63C19.095 0.333 18.222 0.1305 16.9455 0.072C15.6645 0.015 15.258 0 11.997 0H12ZM10.9245 2.163H12.0015C15.2055 2.163 15.585 2.1735 16.8495 2.232C18.0195 2.2845 18.6555 2.481 19.0785 2.6445C19.638 2.862 20.0385 3.123 20.4585 3.543C20.8785 3.963 21.138 4.362 21.3555 4.923C21.5205 5.3445 21.7155 5.9805 21.768 7.1505C21.8265 8.415 21.8385 8.7945 21.8385 11.997C21.8385 15.1995 21.8265 15.5805 21.768 16.845C21.7155 18.015 21.519 18.6495 21.3555 19.0725C21.1617 19.5929 20.8549 20.0637 20.457 20.451C20.037 20.871 19.638 21.1305 19.077 21.348C18.657 21.513 18.021 21.708 16.8495 21.762C15.585 21.819 15.2055 21.8325 12.0015 21.8325C8.7975 21.8325 8.4165 21.819 7.152 21.762C5.982 21.708 5.3475 21.513 4.9245 21.348C4.40375 21.1549 3.9324 20.8485 3.5445 20.451C3.14591 20.0634 2.83849 19.592 2.6445 19.071C2.481 18.6495 2.2845 18.0135 2.232 16.8435C2.175 15.579 2.163 15.1995 2.163 11.994C2.163 8.7885 2.175 8.412 2.232 7.1475C2.286 5.9775 2.481 5.3415 2.646 4.9185C2.8635 4.359 3.1245 3.9585 3.5445 3.5385C3.9645 3.1185 4.3635 2.859 4.9245 2.6415C5.3475 2.4765 5.982 2.2815 7.152 2.2275C8.259 2.1765 8.688 2.1615 10.9245 2.16V2.163ZM18.4065 4.155C18.2174 4.155 18.0301 4.19225 17.8554 4.26461C17.6807 4.33698 17.522 4.44305 17.3883 4.57677C17.2545 4.71048 17.1485 4.86923 17.0761 5.04394C17.0037 5.21864 16.9665 5.4059 16.9665 5.595C16.9665 5.7841 17.0037 5.97135 17.0761 6.14606C17.1485 6.32077 17.2545 6.47952 17.3883 6.61323C17.522 6.74695 17.6807 6.85302 17.8554 6.92539C18.0301 6.99775 18.2174 7.035 18.4065 7.035C18.7884 7.035 19.1547 6.88329 19.4247 6.61323C19.6948 6.34318 19.8465 5.97691 19.8465 5.595C19.8465 5.21309 19.6948 4.84682 19.4247 4.57677C19.1547 4.30671 18.7884 4.155 18.4065 4.155ZM12.0015 5.838C11.1841 5.82525 10.3723 5.97523 9.61347 6.27921C8.85459 6.58319 8.16377 7.03511 7.58123 7.60863C6.99868 8.18216 6.53605 8.86585 6.22026 9.61989C5.90448 10.3739 5.74185 11.1833 5.74185 12.0007C5.74185 12.8182 5.90448 13.6276 6.22026 14.3816C6.53605 15.1356 6.99868 15.8193 7.58123 16.3929C8.16377 16.9664 8.85459 17.4183 9.61347 17.7223C10.3723 18.0263 11.1841 18.1763 12.0015 18.1635C13.6193 18.1383 15.1623 17.4779 16.2975 16.3249C17.4326 15.1719 18.0689 13.6188 18.0689 12.0007C18.0689 10.3827 17.4326 8.82962 16.2975 7.67662C15.1623 6.52363 13.6193 5.86324 12.0015 5.838ZM12.0015 7.9995C12.5269 7.9995 13.0471 8.10298 13.5324 8.30402C14.0178 8.50506 14.4588 8.79974 14.8303 9.17122C15.2018 9.5427 15.4964 9.98371 15.6975 10.4691C15.8985 10.9544 16.002 11.4746 16.002 12C16.002 12.5254 15.8985 13.0456 15.6975 13.5309C15.4964 14.0163 15.2018 14.4573 14.8303 14.8288C14.4588 15.2003 14.0178 15.4949 13.5324 15.696C13.0471 15.897 12.5269 16.0005 12.0015 16.0005C10.9405 16.0005 9.92296 15.579 9.17272 14.8288C8.42248 14.0785 8.001 13.061 8.001 12C8.001 10.939 8.42248 9.92146 9.17272 9.17122C9.92296 8.42098 10.9405 7.9995 12.0015 7.9995Z" fill="currentColor"/>
  </symbol>

  <symbol id="github" viewBox="0 0 24 24">
    <path d="M12 0C5.37 0 0 5.37 0 12C0 17.31 3.435 21.795 8.205 23.385C8.805 23.49 9.03 23.13 9.03 22.815C9.03 22.53 9.015 21.585 9.015 20.58C6 21.135 5.22 19.845 4.98 19.17C4.845 18.825 4.26 17.76 3.75 17.475C3.33 17.25 2.73 16.695 3.735 16.68C4.68 16.665 5.355 17.55 5.58 17.91C6.66 19.725 8.385 19.215 9.075 18.9C9.18 18.12 9.495 17.595 9.84 17.295C7.17 16.995 4.38 15.96 4.38 11.37C4.38 10.065 4.845 8.985 5.61 8.145C5.49 7.845 5.07 6.615 5.73 4.965C5.73 4.965 6.735 4.65 9.03 6.195C9.99 5.925 11.01 5.79 12.03 5.79C13.05 5.79 14.07 5.925 15.03 6.195C17.325 4.635 18.33 4.965 18.33 4.965C18.99 6.615 18.57 7.845 18.45 8.145C19.215 8.985 19.68 10.05 19.68 11.37C19.68 15.975 16.875 16.995 14.205 17.295C14.64 17.67 15.015 18.39 15.015 19.515C15.015 21.12 15 22.41 15 22.815C15 23.13 15.225 23.505 15.825 23.385C18.2076 22.5814 20.278 21.0505 21.7446 19.008C23.2112 16.9656 24 14.5145 24 12C24 5.37 18.63 0 12 0Z" fill="currentColor"/>
  </symbol>

  <symbol id="behance" viewBox="0 0 24 16">
    <path d="M6.981 0C7.6725 0 8.3115 0.0525002 8.898 0.21C9.483 0.315 9.9645 0.534 10.392 0.7965C10.8195 1.059 11.1375 1.4355 11.3535 1.917C11.5635 2.397 11.6775 2.9835 11.6775 3.6225C11.6775 4.3665 11.5185 5.0055 11.1435 5.4855C10.821 5.9655 10.2945 6.3945 9.648 6.711C10.557 6.975 11.2485 7.455 11.67 8.094C12.0915 8.733 12.3615 9.5295 12.3615 10.4385C12.3615 11.1825 12.204 11.8215 11.934 12.3555C11.6656 12.8937 11.2613 13.3523 10.761 13.686C10.281 14.0085 9.6945 14.271 9.0555 14.43C8.42964 14.5957 7.78587 14.6844 7.1385 14.694L0 14.7045V0H6.981ZM6.5535 5.967C7.1385 5.967 7.6185 5.8095 7.989 5.5395C8.358 5.2695 8.5215 4.794 8.5215 4.209C8.5215 3.885 8.469 3.57 8.364 3.3585C8.24939 3.14481 8.08469 2.96209 7.884 2.826C7.66671 2.70667 7.43403 2.61784 7.1925 2.562C6.9285 2.5095 6.6585 2.5095 6.342 2.5095H3.255V5.9745C3.255 5.967 6.5535 5.967 6.5535 5.967ZM6.711 12.2565C7.0335 12.2565 7.35 12.204 7.62 12.1515C7.884 12.099 8.154 11.9925 8.364 11.8275C8.574 11.6625 8.739 11.505 8.898 11.2425C9.003 10.9785 9.108 10.656 9.108 10.281C9.108 9.537 8.898 9.003 8.469 8.628C8.0415 8.3055 7.455 8.148 6.7635 8.148H3.255V12.249H6.7125L6.711 12.2565ZM16.998 12.204C17.426 12.631 18.065 12.844 18.915 12.843C19.5 12.843 20.034 12.684 20.463 12.414C20.889 12.094 21.154 11.774 21.258 11.454H23.868C23.439 12.7305 22.8 13.6395 21.951 14.226C21.102 14.7585 20.0865 15.075 18.861 15.075C18.0772 15.0798 17.2998 14.9347 16.5705 14.6475C15.913 14.4049 15.3267 14.0017 14.865 13.4745C14.3712 12.9842 14.0046 12.3807 13.797 11.7165C13.5345 11.025 13.422 10.281 13.422 9.4245C13.422 8.628 13.527 7.8765 13.797 7.185C14.067 6.495 14.436 5.907 14.9175 5.3745C15.3975 4.8945 15.984 4.4655 16.623 4.2015C17.3353 3.91718 18.0955 3.77206 18.8625 3.774C19.7715 3.774 20.568 3.9315 21.2595 4.3065C21.9495 4.6815 22.485 5.1045 22.9125 5.7435C23.34 6.3285 23.6565 7.02 23.874 7.7655C23.979 8.5095 24.0315 9.2595 23.979 10.11H16.254C16.254 10.98 16.569 11.775 16.998 12.204ZM20.358 6.606C19.983 6.231 19.395 6.0195 18.7035 6.0195C18.2235 6.0195 17.8545 6.1245 17.532 6.2835C17.2095 6.4425 16.998 6.6585 16.788 6.8685C16.5922 7.07454 16.4617 7.33393 16.413 7.614C16.359 7.8765 16.308 8.094 16.308 8.304H21.102C20.997 7.515 20.7285 6.981 20.358 6.606ZM15.6675 1.014H21.6345V2.4495H15.6675V1.014Z" fill="currentColor"/>
  </symbol>

  <symbol id="figma" viewBox="0 0 15 24">
    <path d="M7 0V7.30435H3.5C1.5725 7.30435 0 5.66348 0 3.65217C0 1.64087 1.5725 0 3.5 0H7ZM7 8.34783V15.6522H3.5C1.5725 15.6522 0 14.0113 0 12C0 9.9887 1.5725 8.34783 3.5 8.34783H7ZM7 16.6957V20.3478C7 22.3591 5.4275 24 3.5 24C1.5725 24 0 22.3591 0 20.3478C0 18.3365 1.5725 16.6957 3.5 16.6957H7ZM15 3.65217C15 5.66348 13.4275 7.30435 11.5 7.30435H8V0H11.5C13.4275 0 15 1.64087 15 3.65217ZM11.5 8.34783C10.5717 8.34783 9.6815 8.73261 9.02513 9.41752C8.36875 10.1024 8 11.0314 8 12C8 12.9686 8.36875 13.8976 9.02513 14.5825C9.6815 15.2674 10.5717 15.6522 11.5 15.6522C12.4283 15.6522 13.3185 15.2674 13.9749 14.5825C14.6313 13.8976 15 12.9686 15 12C15 11.0314 14.6313 10.1024 13.9749 9.41752C13.3185 8.73261 12.4283 8.34783 11.5 8.34783Z" fill="currentColor"/>
  </symbol>

  <symbol id="notion" viewBox="0 0 24 24">
    <path d="M23.7721 4.73836C23.6342 4.61493 23.4603 4.5444 23.2744 4.5444C23.2624 4.5444 23.2444 4.55028 23.2264 4.55028L5.31934 5.67875C4.94153 5.70226 4.64168 6.01964 4.64168 6.38992V23.2876C4.64168 23.4874 4.72564 23.6696 4.86957 23.8048C5.01949 23.94 5.2114 24.0105 5.41529 23.9987L23.3223 22.8644C23.7061 22.8409 24 22.5294 24 22.1532V5.26145C24 5.06162 23.922 4.87354 23.7721 4.73836ZM19.8681 9.31689C19.5082 9.42856 19.3943 9.43443 19.3943 9.43443V19.5671C18.7826 19.8904 18.2789 20.0432 17.7511 20.0432C17.1094 20.0432 16.7436 19.9022 16.2519 19.1616C15.2084 17.5806 11.8081 12.2203 11.8081 12.2203V18.95L13.1454 19.2263C13.1454 19.2263 13.1094 19.9903 11.94 20.0785C10.9145 20.1549 8.67766 20.2666 8.67766 20.2666C8.67766 19.9903 8.73763 19.6083 9.18141 19.4966C9.39131 19.4437 10.021 19.2791 10.021 19.2791V10.1985H8.67766C8.67766 9.59312 8.85757 9.12293 9.50525 9.07591L12.9775 8.88196L17.6132 15.8879V9.6519L16.2699 9.54023C16.2699 8.99363 16.8096 8.65861 17.2714 8.61159L20.2939 8.44703C20.2939 8.82906 20.2759 9.18758 19.8681 9.31689ZM0 2.04061L3.44228 5.41427V22.7762L0.371814 19.1557C0.125937 18.8148 0 18.421 0 18.0037V2.04061ZM22.6327 3.43357L5.2054 4.50914C4.61169 4.55028 4.03598 4.33282 3.61619 3.92727L0.755622 1.11786L17.0615 0.00701922C17.5472 -0.0341229 18.033 0.106936 18.4288 0.39493L22.6327 3.43357Z" fill="currentColor"/>
  </symbol>

  <symbol id="claude" viewBox="0 0 24 24">
    <path d="M9.4305 13.3117V12.9539L1.1055 12.6136L0.535 12.4922L0 11.7876L0.055 11.4364L0.5345 11.1141L9.5095 11.7861L9.5645 11.6292L2.358 6.68582L1.9935 6.22411L1.8365 5.21674L2.4925 4.49469L3.5995 4.61462L9.2555 8.91293L9.419 8.73654L5.8115 2.49444C5.8115 2.49444 5.5375 1.40762 5.5375 1.14678L6.2845 0.132917L6.698 0L8.1145 0.497189L12.082 9.15728H12.239L12.913 1.7524L13.289 0.841974L14.036 0.349781L14.6195 0.628107L15.099 1.31468L13.8235 8.45721H14.036L14.279 8.21437L18.496 3.11905L19.042 2.68832H20.0745L20.8345 3.81711L20.494 4.98339L16.496 10.5339L16.569 10.6423L16.757 10.6244L22.9965 9.42261L23.8295 9.81137L23.9205 10.2066L23.593 11.0146L15.8755 12.775L15.8335 12.806L15.882 12.866L22.7375 13.2727L23.5265 13.7944L24 14.4325L23.9205 14.9182L22.705 15.5368L15.9245 13.9108H15.743V14.0192L21.352 19.2295L21.48 19.8061L21.1575 20.2613L20.817 20.2129L15.8335 16.1864H15.7055V16.3563L18.4945 20.5287L18.616 21.609L18.446 21.9603L17.8385 22.1726L17.171 22.0512L13.2395 16.0135L13.1 16.0929L12.426 23.3504L12.11 23.7212L11.3805 24L10.773 23.5383L10.45 22.7918L11.933 15.3269L11.9215 15.2849L11.782 15.3029L6.4405 22.0627L6.027 22.2261L5.3105 21.8553L5.377 21.1928L5.7775 20.6031L10.5375 14.5974L10.531 14.4405H10.476L4.131 18.5574L3.0015 18.7033L2.515 18.2486L2.575 17.5021L2.805 17.2592L9.4305 13.3117Z" fill="currentColor"/>
  </symbol>

  <!-- ================================
       COMPÉTENCES TECHNIQUES
  ================================ -->

  <symbol id="html" viewBox="0 0 21 24">
    <path d="M20.8658 0.169158C20.7699 0.0611416 20.6321 0 20.4883 0H0.511688C0.367885 0 0.230074 0.0611416 0.134205 0.169158C0.0363386 0.277174 -0.0115957 0.421875 0.0023853 0.568614L1.80192 21.1386C1.81989 21.3546 1.96769 21.534 2.17141 21.5951L10.3582 23.9796C10.4021 23.9939 10.4501 24 10.498 24C10.5459 24 10.5919 23.9939 10.6378 23.9796L18.8306 21.5951C19.0343 21.534 19.1801 21.3546 19.2001 21.1386L20.9976 0.568614C21.0116 0.421875 20.9637 0.277174 20.8658 0.169158ZM16.5577 7.26155H6.93888L7.16856 9.91712H16.326L15.639 17.7656L10.496 19.3512L10.4461 19.3349L5.36304 17.7636L5.08542 14.5659H7.57601L7.68386 15.8071L10.526 16.4144L13.3161 15.8071L13.6137 12.4484H4.89967L4.2226 4.72419H16.7794L16.5577 7.26155Z" fill="currentColor"/>
  </symbol>

  <symbol id="javascript" viewBox="0 0 24 24">
    <path d="M22.4777 0H1.52455C0.683036 0 0 0.683036 0 1.52455V22.4754C0 23.317 0.683036 24 1.52455 24H22.4754C23.317 24 24 23.317 24 22.4777V1.52455C24 0.683036 23.317 0 22.4777 0ZM13.1429 18.3906C13.1429 20.6741 11.8036 21.7143 9.84822 21.7143C8.08036 21.7143 6.8058 20.529 6.28571 19.4286L8.08259 18.3415C8.42857 18.9554 8.95536 19.4286 9.71429 19.4286C10.4397 19.4286 10.8571 19.1451 10.8571 18.0424V10.8571H13.1429V18.3906ZM18.1004 21.7143C16.0759 21.7143 14.9263 20.6942 14.2857 19.4286L16 18.2857C16.4665 19.0491 16.9754 19.779 18.0513 19.779C18.9554 19.779 19.4286 19.3281 19.4286 18.7031C19.4286 17.9576 18.9375 17.692 17.9442 17.2567L17.3996 17.0223C15.8259 16.3527 14.779 15.5134 14.779 13.7366C14.779 12.1027 16.0268 10.8571 17.9732 10.8571C19.3594 10.8571 20.3549 11.3393 21.0737 12.6027L19.3772 13.6942C19.0022 13.0223 18.6004 12.7589 17.9732 12.7589C17.3348 12.7589 16.9308 13.1652 16.9308 13.6942C16.9308 14.3482 17.3348 14.6116 18.2701 15.0179L18.8147 15.2522C20.6696 16.0446 21.7143 16.8549 21.7143 18.6763C21.7143 20.6384 20.1719 21.7143 18.1004 21.7143Z" fill="currentColor"/>
  </symbol>

  <symbol id="office" viewBox="0 0 20 24">
    <path d="M0 4.8L12.9412 0L20 1.8V22.2L12.9412 24L0 19.2L12.9412 21V3.6L4.70588 5.4V17.4L0 19.2V4.8Z" fill="currentColor"/>
  </symbol>

</svg>
