<svg width="135" height="48" viewBox="0 0 135 48" fill="none" xmlns="http://www.w3.org/2000/svg">
<path d="M0 32V18.9091H3.46023V21.2188H3.61364C3.88636 20.4517 4.34091 19.8466 4.97727 19.4034C5.61364 18.9602 6.375 18.7386 7.26136 18.7386C8.15909 18.7386 8.9233 18.9631 9.55398 19.4119C10.1847 19.8551 10.6051 20.4574 10.8153 21.2188H10.9517C11.2188 20.4688 11.7017 19.8693 12.4006 19.4205C13.1051 18.9659 13.9375 18.7386 14.8977 18.7386C16.1193 18.7386 17.1108 19.1278 17.8722 19.9062C18.6392 20.679 19.0227 21.7756 19.0227 23.196V32H15.4006V23.9119C15.4006 23.1847 15.2074 22.6392 14.821 22.2756C14.4347 21.9119 13.9517 21.7301 13.3722 21.7301C12.7131 21.7301 12.1989 21.9403 11.8295 22.3608C11.4602 22.7756 11.2756 23.3239 11.2756 24.0057V32H7.75568V23.8352C7.75568 23.1932 7.57102 22.6818 7.2017 22.3011C6.83807 21.9205 6.35795 21.7301 5.76136 21.7301C5.35795 21.7301 4.99432 21.8324 4.67045 22.0369C4.35227 22.2358 4.09943 22.517 3.91193 22.8807C3.72443 23.2386 3.63068 23.6591 3.63068 24.142V32H0Z" fill="black"/>
<path d="M25.6236 32.2472C24.7884 32.2472 24.044 32.1023 23.3906 31.8125C22.7372 31.517 22.2202 31.0824 21.8395 30.5085C21.4645 29.929 21.277 29.2074 21.277 28.3438C21.277 27.6165 21.4105 27.0057 21.6776 26.5114C21.9446 26.017 22.3082 25.6193 22.7685 25.3182C23.2287 25.017 23.7514 24.7898 24.3366 24.6364C24.9276 24.483 25.5469 24.375 26.1946 24.3125C26.956 24.233 27.5696 24.1591 28.0355 24.0909C28.5014 24.017 28.8395 23.9091 29.0497 23.767C29.2599 23.625 29.3651 23.4148 29.3651 23.1364V23.0852C29.3651 22.5455 29.1946 22.1278 28.8537 21.8324C28.5185 21.5369 28.0412 21.3892 27.4219 21.3892C26.7685 21.3892 26.2486 21.5341 25.8622 21.8239C25.4759 22.108 25.2202 22.4659 25.0952 22.8977L21.7372 22.625C21.9077 21.8295 22.2429 21.142 22.7429 20.5625C23.2429 19.9773 23.8878 19.5284 24.6776 19.2159C25.473 18.8977 26.3935 18.7386 27.4389 18.7386C28.1662 18.7386 28.8622 18.8239 29.527 18.9943C30.1974 19.1648 30.7912 19.429 31.3082 19.7869C31.831 20.1449 32.2429 20.6051 32.544 21.1676C32.8452 21.7244 32.9957 22.392 32.9957 23.1705V32H29.5526V30.1847H29.4503C29.2401 30.5938 28.9588 30.9545 28.6065 31.267C28.2543 31.5739 27.831 31.8153 27.3366 31.9915C26.8423 32.1619 26.2713 32.2472 25.6236 32.2472ZM26.6634 29.7415C27.1974 29.7415 27.669 29.6364 28.0781 29.4261C28.4872 29.2102 28.8082 28.9205 29.0412 28.5568C29.2741 28.1932 29.3906 27.7812 29.3906 27.321V25.9318C29.277 26.0057 29.1207 26.0739 28.9219 26.1364C28.7287 26.1932 28.5099 26.2472 28.2656 26.2983C28.0213 26.3438 27.777 26.3864 27.5327 26.4261C27.2884 26.4602 27.0668 26.4915 26.8679 26.5199C26.4418 26.5824 26.0696 26.6818 25.7514 26.8182C25.4332 26.9545 25.1861 27.1392 25.0099 27.3722C24.8338 27.5994 24.7457 27.8835 24.7457 28.2244C24.7457 28.7188 24.9247 29.0966 25.2827 29.358C25.6463 29.6136 26.1065 29.7415 26.6634 29.7415Z" fill="black"/>
<path d="M48 18.9091L43.1447 24.5797L48.2472 32H43.9943L40.4271 26.7202L39.4432 27.8437V32H35.8125V14.5455H39.4432V23.8778H39.6392L43.8324 18.9091H48Z" fill="black"/>
<path d="M53.4119 14.5455V32H49.7812V14.5455H53.4119Z" fill="black"/>
<path fill-rule="evenodd" clip-rule="evenodd" d="M62.2351 32.2557C60.9112 32.2557 59.7663 31.9744 58.8004 31.4119C57.8402 30.8438 57.0987 30.054 56.576 29.0426C56.0533 28.0256 55.7919 26.8466 55.7919 25.5057C55.7919 24.1534 56.0533 22.9716 56.576 21.9602C57.0987 20.9432 57.8402 20.1534 58.8004 19.5909C59.7663 19.0227 60.9112 18.7386 62.2351 18.7386C63.5589 18.7386 64.701 19.0227 65.6612 19.5909C66.6271 20.1534 67.3714 20.9432 67.8942 21.9602C68.4169 22.9716 68.6783 24.1534 68.6783 25.5057C68.6783 26.8466 68.4169 28.0256 67.8942 29.0426C67.3714 30.054 66.6271 30.8438 65.6612 31.4119C64.701 31.9744 63.5589 32.2557 62.2351 32.2557ZM63.7607 28.9318C63.3572 29.2727 62.8544 29.4432 62.2521 29.4432C61.6442 29.4432 61.1328 29.2727 60.718 28.9318C60.3089 28.5852 59.9993 28.1136 59.7891 27.517C59.5845 26.9205 59.4822 26.2415 59.4822 25.4801C59.4822 24.7188 59.5845 24.0398 59.7891 23.4432C59.9993 22.8466 60.3089 22.375 60.718 22.0284C61.1328 21.6818 61.6442 21.5085 62.2521 21.5085C62.8544 21.5085 63.3572 21.6818 63.7607 22.0284C64.1641 22.375 64.468 22.8466 64.6726 23.4432C64.8828 24.0398 64.9879 24.7188 64.9879 25.4801C64.9879 26.2415 64.8828 26.9205 64.6726 27.517C64.468 28.1136 64.1641 28.5852 63.7607 28.9318Z" fill="black"/>
<path d="M134.551 0H86.5511V48H134.551V0ZM96 31V17.9091H99.5199V20.1932H99.6562C99.8949 19.3807 100.295 18.767 100.858 18.3523C101.42 17.9318 102.068 17.7216 102.801 17.7216C102.983 17.7216 103.179 17.733 103.389 17.7557C103.599 17.7784 103.784 17.8097 103.943 17.8494V21.071C103.773 21.0199 103.537 20.9744 103.236 20.9347C102.935 20.8949 102.659 20.875 102.409 20.875C101.875 20.875 101.398 20.9915 100.977 21.2244C100.562 21.4517 100.233 21.7699 99.9886 22.179C99.75 22.5881 99.6307 23.0597 99.6307 23.5938V31H96ZM105.82 31V17.9091H109.281V20.2188H109.434C109.707 19.4517 110.161 18.8466 110.798 18.4034C111.434 17.9602 112.195 17.7386 113.082 17.7386C113.979 17.7386 114.744 17.9631 115.374 18.4119C116.005 18.8551 116.425 19.4574 116.636 20.2188H116.772C117.039 19.4688 117.522 18.8693 118.221 18.4205C118.925 17.9659 119.758 17.7386 120.718 17.7386C121.94 17.7386 122.931 18.1278 123.692 18.9062C124.46 19.679 124.843 20.7756 124.843 22.196V31H121.221V22.9119C121.221 22.1847 121.028 21.6392 120.641 21.2756C120.255 20.9119 119.772 20.7301 119.192 20.7301C118.533 20.7301 118.019 20.9403 117.65 21.3608C117.281 21.7756 117.096 22.3239 117.096 23.0057V31H113.576V22.8352C113.576 22.1932 113.391 21.6818 113.022 21.3011C112.658 20.9205 112.178 20.7301 111.582 20.7301C111.178 20.7301 110.815 20.8324 110.491 21.0369C110.173 21.2358 109.92 21.517 109.732 21.8807C109.545 22.2386 109.451 22.6591 109.451 23.142V31H105.82Z" fill="#FFBF00"/>
</svg>
