<svg width="48" height="48" viewBox="0 0 48 48" fill="none" xmlns="http://www.w3.org/2000/svg">
<path d="M48 0H0V48H48V0ZM9.44886 31V17.9091H12.9688V20.1932H13.1051C13.3438 19.3807 13.7443 18.767 14.3068 18.3523C14.8693 17.9318 15.517 17.7216 16.25 17.7216C16.4318 17.7216 16.6278 17.733 16.8381 17.7557C17.0483 17.7784 17.233 17.8097 17.392 17.8494V21.071C17.2216 21.0199 16.9858 20.9744 16.6847 20.9347C16.3835 20.8949 16.1079 20.875 15.8579 20.875C15.3239 20.875 14.8466 20.9915 14.4261 21.2244C14.0114 21.4517 13.6818 21.7699 13.4375 22.179C13.1989 22.5881 13.0795 23.0597 13.0795 23.5938V31H9.44886ZM19.2692 31V17.9091H22.7294V20.2188H22.8828C23.1555 19.4517 23.6101 18.8466 24.2464 18.4034C24.8828 17.9602 25.6442 17.7386 26.5305 17.7386C27.4283 17.7386 28.1925 17.9631 28.8232 18.4119C29.4538 18.8551 29.8743 19.4574 30.0845 20.2188H30.2209C30.4879 19.4688 30.9709 18.8693 31.6697 18.4205C32.3743 17.9659 33.2067 17.7386 34.1669 17.7386C35.3885 17.7386 36.38 18.1278 37.1413 18.9062C37.9084 19.679 38.2919 20.7756 38.2919 22.196V31H34.6697V22.9119C34.6697 22.1847 34.4766 21.6392 34.0902 21.2756C33.7038 20.9119 33.2209 20.7301 32.6413 20.7301C31.9822 20.7301 31.468 20.9403 31.0987 21.3608C30.7294 21.7756 30.5447 22.3239 30.5447 23.0057V31H27.0249V22.8352C27.0249 22.1932 26.8402 21.6818 26.4709 21.3011C26.1072 20.9205 25.6271 20.7301 25.0305 20.7301C24.6271 20.7301 24.2635 20.8324 23.9396 21.0369C23.6214 21.2358 23.3686 21.517 23.1811 21.8807C22.9936 22.2386 22.8999 22.6591 22.8999 23.142V31H19.2692Z" fill="#FFBF00"/>
</svg>
