<svg width="24" height="16" viewBox="0 0 24 16" fill="none" xmlns="http://www.w3.org/2000/svg">
<path d="M6.981 0C7.6725 0 8.3115 0.0525002 8.898 0.21C9.483 0.315 9.9645 0.534 10.392 0.7965C10.8195 1.059 11.1375 1.4355 11.3535 1.917C11.5635 2.397 11.6775 2.9835 11.6775 3.6225C11.6775 4.3665 11.5185 5.0055 11.1435 5.4855C10.821 5.9655 10.2945 6.3945 9.648 6.711C10.557 6.975 11.2485 7.455 11.67 8.094C12.0915 8.733 12.3615 9.5295 12.3615 10.4385C12.3615 11.1825 12.204 11.8215 11.934 12.3555C11.6656 12.8937 11.2613 13.3523 10.761 13.686C10.281 14.0085 9.6945 14.271 9.0555 14.43C8.42964 14.5957 7.78587 14.6844 7.1385 14.694L0 14.7045V0H6.981ZM6.5535 5.967C7.1385 5.967 7.6185 5.8095 7.989 5.5395C8.358 5.2695 8.5215 4.794 8.5215 4.209C8.5215 3.885 8.469 3.57 8.364 3.3585C8.24939 3.14481 8.08469 2.96209 7.884 2.826C7.66671 2.70667 7.43403 2.61784 7.1925 2.562C6.9285 2.5095 6.6585 2.5095 6.342 2.5095H3.255V5.9745C3.255 5.967 6.5535 5.967 6.5535 5.967ZM6.711 12.2565C7.0335 12.2565 7.35 12.204 7.62 12.1515C7.884 12.099 8.154 11.9925 8.364 11.8275C8.574 11.6625 8.739 11.505 8.898 11.2425C9.003 10.9785 9.108 10.656 9.108 10.281C9.108 9.537 8.898 9.003 8.469 8.628C8.0415 8.3055 7.455 8.148 6.7635 8.148H3.255V12.249H6.7125L6.711 12.2565ZM16.998 12.204C17.426 12.631 18.065 12.844 18.915 12.843C19.5 12.843 20.034 12.684 20.463 12.414C20.889 12.094 21.154 11.774 21.258 11.454H23.868C23.439 12.7305 22.8 13.6395 21.951 14.226C21.102 14.7585 20.0865 15.075 18.861 15.075C18.0772 15.0798 17.2998 14.9347 16.5705 14.6475C15.913 14.4049 15.3267 14.0017 14.865 13.4745C14.3712 12.9842 14.0046 12.3807 13.797 11.7165C13.5345 11.025 13.422 10.281 13.422 9.4245C13.422 8.628 13.527 7.8765 13.797 7.185C14.067 6.495 14.436 5.907 14.9175 5.3745C15.3975 4.8945 15.984 4.4655 16.623 4.2015C17.3353 3.91718 18.0955 3.77206 18.8625 3.774C19.7715 3.774 20.568 3.9315 21.2595 4.3065C21.9495 4.6815 22.485 5.1045 22.9125 5.7435C23.34 6.3285 23.6565 7.02 23.874 7.7655C23.979 8.5095 24.0315 9.2595 23.979 10.11H16.254C16.254 10.98 16.569 11.775 16.998 12.204ZM20.358 6.606C19.983 6.231 19.395 6.0195 18.7035 6.0195C18.2235 6.0195 17.8545 6.1245 17.532 6.2835C17.2095 6.4425 16.998 6.6585 16.788 6.8685C16.5922 7.07454 16.4617 7.33393 16.413 7.614C16.359 7.8765 16.308 8.094 16.308 8.304H21.102C20.997 7.515 20.7285 6.981 20.358 6.606ZM15.6675 1.014H21.6345V2.4495H15.6675V1.014Z" fill="white"/>
</svg>
