<svg width="15" height="24" viewBox="0 0 15 24" fill="none" xmlns="http://www.w3.org/2000/svg">
<path d="M7 0V7.30435H3.5C1.5725 7.30435 0 5.66348 0 3.65217C0 1.64087 1.5725 0 3.5 0H7ZM7 8.34783V15.6522H3.5C1.5725 15.6522 0 14.0113 0 12C0 9.9887 1.5725 8.34783 3.5 8.34783H7ZM7 16.6957V20.3478C7 22.3591 5.4275 24 3.5 24C1.5725 24 0 22.3591 0 20.3478C0 18.3365 1.5725 16.6957 3.5 16.6957H7ZM15 3.65217C15 5.66348 13.4275 7.30435 11.5 7.30435H8V0H11.5C13.4275 0 15 1.64087 15 3.65217ZM11.5 8.34783C10.5717 8.34783 9.6815 8.73261 9.02513 9.41752C8.36875 10.1024 8 11.0314 8 12C8 12.9686 8.36875 13.8976 9.02513 14.5825C9.6815 15.2674 10.5717 15.6522 11.5 15.6522C12.4283 15.6522 13.3185 15.2674 13.9749 14.5825C14.6313 13.8976 15 12.9686 15 12C15 11.0314 14.6313 10.1024 13.9749 9.41752C13.3185 8.73261 12.4283 8.34783 11.5 8.34783Z" fill="white"/>
</svg>
