<svg width="21" height="24" viewBox="0 0 21 24" fill="none" xmlns="http://www.w3.org/2000/svg">
<path d="M20.8658 0.169158C20.7699 0.0611416 20.6321 0 20.4883 0H0.511688C0.367885 0 0.230074 0.0611416 0.134205 0.169158C0.0363386 0.277174 -0.0115957 0.421875 0.0023853 0.568614L1.80192 21.1386C1.81989 21.3546 1.96769 21.534 2.17141 21.5951L10.3582 23.9796C10.4021 23.9939 10.4501 24 10.498 24C10.5459 24 10.5919 23.9939 10.6378 23.9796L18.8306 21.5951C19.0343 21.534 19.1801 21.3546 19.2001 21.1386L20.9976 0.568614C21.0116 0.421875 20.9637 0.277174 20.8658 0.169158ZM16.5577 7.26155H6.93888L7.16856 9.91712H16.326L15.639 17.7656L10.496 19.3512L10.4461 19.3349L5.36304 17.7636L5.08542 14.5659H7.57601L7.68386 15.8071L10.526 16.4144L13.3161 15.8071L13.6137 12.4484H4.89967L4.2226 4.72419H16.7794L16.5577 7.26155Z" fill="white"/>
</svg>
