<svg width="24" height="24" viewBox="0 0 24 24" fill="none" xmlns="http://www.w3.org/2000/svg">
<path d="M22.4777 0H1.52455C0.683036 0 0 0.683036 0 1.52455V22.4754C0 23.317 0.683036 24 1.52455 24H22.4754C23.317 24 24 23.317 24 22.4777V1.52455C24 0.683036 23.317 0 22.4777 0ZM13.1429 18.3906C13.1429 20.6741 11.8036 21.7143 9.84822 21.7143C8.08036 21.7143 6.8058 20.529 6.28571 19.4286L8.08259 18.3415C8.42857 18.9554 8.95536 19.4286 9.71429 19.4286C10.4397 19.4286 10.8571 19.1451 10.8571 18.0424V10.8571H13.1429V18.3906ZM18.1004 21.7143C16.0759 21.7143 14.9263 20.6942 14.2857 19.4286L16 18.2857C16.4665 19.0491 16.9754 19.779 18.0513 19.779C18.9554 19.779 19.4286 19.3281 19.4286 18.7031C19.4286 17.9576 18.9375 17.692 17.9442 17.2567L17.3996 17.0223C15.8259 16.3527 14.779 15.5134 14.779 13.7366C14.779 12.1027 16.0268 10.8571 17.9732 10.8571C19.3594 10.8571 20.3549 11.3393 21.0737 12.6027L19.3772 13.6942C19.0022 13.0223 18.6004 12.7589 17.9732 12.7589C17.3348 12.7589 16.9308 13.1652 16.9308 13.6942C16.9308 14.3482 17.3348 14.6116 18.2701 15.0179L18.8147 15.2522C20.6696 16.0446 21.7143 16.8549 21.7143 18.6763C21.7143 20.6384 20.1719 21.7143 18.1004 21.7143Z" fill="white"/>
</svg>
