<svg width="24" height="24" viewBox="0 0 24 24" fill="none" xmlns="http://www.w3.org/2000/svg">
<path d="M23.7721 4.73836C23.6342 4.61493 23.4603 4.5444 23.2744 4.5444C23.2624 4.5444 23.2444 4.55028 23.2264 4.55028L5.31934 5.67875C4.94153 5.70226 4.64168 6.01964 4.64168 6.38992V23.2876C4.64168 23.4874 4.72564 23.6696 4.86957 23.8048C5.01949 23.94 5.2114 24.0105 5.41529 23.9987L23.3223 22.8644C23.7061 22.8409 24 22.5294 24 22.1532V5.26145C24 5.06162 23.922 4.87354 23.7721 4.73836ZM19.8681 9.31689C19.5082 9.42856 19.3943 9.43443 19.3943 9.43443V19.5671C18.7826 19.8904 18.2789 20.0432 17.7511 20.0432C17.1094 20.0432 16.7436 19.9022 16.2519 19.1616C15.2084 17.5806 11.8081 12.2203 11.8081 12.2203V18.95L13.1454 19.2263C13.1454 19.2263 13.1094 19.9903 11.94 20.0785C10.9145 20.1549 8.67766 20.2666 8.67766 20.2666C8.67766 19.9903 8.73763 19.6083 9.18141 19.4966C9.39131 19.4437 10.021 19.2791 10.021 19.2791V10.1985H8.67766C8.67766 9.59312 8.85757 9.12293 9.50525 9.07591L12.9775 8.88196L17.6132 15.8879V9.6519L16.2699 9.54023C16.2699 8.99363 16.8096 8.65861 17.2714 8.61159L20.2939 8.44703C20.2939 8.82906 20.2759 9.18758 19.8681 9.31689ZM0 2.04061L3.44228 5.41427V22.7762L0.371814 19.1557C0.125937 18.8148 0 18.421 0 18.0037V2.04061ZM22.6327 3.43357L5.2054 4.50914C4.61169 4.55028 4.03598 4.33282 3.61619 3.92727L0.755622 1.11786L17.0615 0.00701922C17.5472 -0.0341229 18.033 0.106936 18.4288 0.39493L22.6327 3.43357Z" fill="white"/>
</svg>
