<svg width="24" height="24" viewBox="0 0 24 24" fill="none" xmlns="http://www.w3.org/2000/svg">
<path d="M2.66667 24C1.93333 24 1.30556 23.7389 0.783333 23.2167C0.261111 22.6944 0 22.0667 0 21.3333V2.66667C0 1.93333 0.261111 1.30556 0.783333 0.783333C1.30556 0.261111 1.93333 0 2.66667 0H21.3333C22.0667 0 22.6944 0.261111 23.2167 0.783333C23.7389 1.30556 24 1.93333 24 2.66667V21.3333C24 22.0667 23.7389 22.6944 23.2167 23.2167C22.6944 23.7389 22.0667 24 21.3333 24H2.66667ZM4 18.6667H20L15 12L11 17.3333L8 13.3333L4 18.6667ZM8.75 8.75C9.13889 8.36111 9.33333 7.88889 9.33333 7.33333C9.33333 6.77778 9.13889 6.30556 8.75 5.91667C8.36111 5.52778 7.88889 5.33333 7.33333 5.33333C6.77778 5.33333 6.30556 5.52778 5.91667 5.91667C5.52778 6.30556 5.33333 6.77778 5.33333 7.33333C5.33333 7.88889 5.52778 8.36111 5.91667 8.75C6.30556 9.13889 6.77778 9.33333 7.33333 9.33333C7.88889 9.33333 8.36111 9.13889 8.75 8.75Z" fill="white"/>
</svg>
